<svg width="66" height="24" viewBox="0 0 66 24" fill="none" xmlns="http://www.w3.org/2000/svg">
<path d="M5.31 5.01V11.025H13.14V14.565H5.31V23.25H0.78V1.485H14.64V5.01H5.31Z" fill="#C42844"/>
<path d="M24.1772 7.545C25.3372 7.545 26.3922 7.73 27.3422 8.1C28.2922 8.47 29.1072 9 29.7872 9.69C30.4672 10.37 30.9922 11.2 31.3622 12.18C31.7322 13.16 31.9172 14.265 31.9172 15.495C31.9172 16.725 31.7322 17.835 31.3622 18.825C30.9922 19.805 30.4672 20.64 29.7872 21.33C29.1072 22.02 28.2922 22.55 27.3422 22.92C26.3922 23.29 25.3372 23.475 24.1772 23.475C23.0072 23.475 21.9422 23.29 20.9822 22.92C20.0322 22.55 19.2172 22.02 18.5372 21.33C17.8572 20.64 17.3272 19.805 16.9472 18.825C16.5772 17.835 16.3922 16.725 16.3922 15.495C16.3922 14.265 16.5772 13.16 16.9472 12.18C17.3272 11.2 17.8572 10.37 18.5372 9.69C19.2172 9 20.0322 8.47 20.9822 8.1C21.9422 7.73 23.0072 7.545 24.1772 7.545ZM24.1772 20.37C25.3572 20.37 26.2322 19.965 26.8022 19.155C27.3722 18.335 27.6572 17.12 27.6572 15.51C27.6572 13.91 27.3722 12.705 26.8022 11.895C26.2322 11.075 25.3572 10.665 24.1772 10.665C22.9672 10.665 22.0772 11.075 21.5072 11.895C20.9372 12.705 20.6522 13.91 20.6522 15.51C20.6522 17.12 20.9372 18.335 21.5072 19.155C22.0772 19.965 22.9672 20.37 24.1772 20.37ZM41.4916 7.545C42.6516 7.545 43.7066 7.73 44.6566 8.1C45.6066 8.47 46.4216 9 47.1016 9.69C47.7816 10.37 48.3066 11.2 48.6766 12.18C49.0466 13.16 49.2316 14.265 49.2316 15.495C49.2316 16.725 49.0466 17.835 48.6766 18.825C48.3066 19.805 47.7816 20.64 47.1016 21.33C46.4216 22.02 45.6066 22.55 44.6566 22.92C43.7066 23.29 42.6516 23.475 41.4916 23.475C40.3216 23.475 39.2566 23.29 38.2966 22.92C37.3466 22.55 36.5316 22.02 35.8516 21.33C35.1716 20.64 34.6416 19.805 34.2616 18.825C33.8916 17.835 33.7066 16.725 33.7066 15.495C33.7066 14.265 33.8916 13.16 34.2616 12.18C34.6416 11.2 35.1716 10.37 35.8516 9.69C36.5316 9 37.3466 8.47 38.2966 8.1C39.2566 7.73 40.3216 7.545 41.4916 7.545ZM41.4916 20.37C42.6716 20.37 43.5466 19.965 44.1166 19.155C44.6866 18.335 44.9716 17.12 44.9716 15.51C44.9716 13.91 44.6866 12.705 44.1166 11.895C43.5466 11.075 42.6716 10.665 41.4916 10.665C40.2816 10.665 39.3916 11.075 38.8216 11.895C38.2516 12.705 37.9666 13.91 37.9666 15.51C37.9666 17.12 38.2516 18.335 38.8216 19.155C39.3916 19.965 40.2816 20.37 41.4916 20.37ZM61.3861 11.805C60.9961 11.355 60.5711 11.04 60.1111 10.86C59.6611 10.68 59.1811 10.59 58.6711 10.59C58.1711 10.59 57.7161 10.685 57.3061 10.875C56.8961 11.065 56.5411 11.365 56.2411 11.775C55.9511 12.175 55.7261 12.69 55.5661 13.32C55.4061 13.95 55.3261 14.7 55.3261 15.57C55.3261 16.43 55.3911 17.16 55.5211 17.76C55.6511 18.36 55.8361 18.845 56.0761 19.215C56.3261 19.585 56.6261 19.855 56.9761 20.025C57.3261 20.185 57.7161 20.265 58.1461 20.265C58.8761 20.265 59.4861 20.12 59.9761 19.83C60.4761 19.54 60.9461 19.13 61.3861 18.6V11.805ZM65.5261 0.884999V23.25H62.9761C62.4461 23.25 62.1061 23.01 61.9561 22.53L61.6111 21.18C61.3011 21.52 60.9711 21.83 60.6211 22.11C60.2811 22.39 59.9111 22.635 59.5111 22.845C59.1111 23.045 58.6811 23.2 58.2211 23.31C57.7611 23.42 57.2611 23.475 56.7211 23.475C55.8911 23.475 55.1311 23.3 54.4411 22.95C53.7511 22.6 53.1511 22.09 52.6411 21.42C52.1411 20.74 51.7511 19.91 51.4711 18.93C51.1911 17.95 51.0511 16.83 51.0511 15.57C51.0511 14.42 51.2061 13.35 51.5161 12.36C51.8361 11.37 52.2861 10.515 52.8661 9.795C53.4461 9.075 54.1461 8.51 54.9661 8.1C55.7861 7.69 56.6961 7.485 57.6961 7.485C58.5361 7.485 59.2411 7.61 59.8111 7.86C60.3911 8.11 60.9161 8.45 61.3861 8.88V0.884999H65.5261Z" fill="#F4900C"/>
</svg>
