<svg width="30" height="23" viewBox="0 0 30 23" fill="none" xmlns="http://www.w3.org/2000/svg">
<path d="M0 2C0 0.89543 0.895431 0 2 0H28C29.1046 0 30 0.895431 30 2V8C30 16.2843 23.2843 23 15 23H2C0.89543 23 0 22.1046 0 21V2Z" fill="#C42844"/>
<path d="M13.4265 17.25C13.7161 17.25 13.9509 17.0048 13.9509 16.7024C13.9509 16.3999 13.7161 16.1548 13.4265 16.1548C13.1368 16.1548 12.902 16.3999 12.902 16.7024C12.902 17.0048 13.1368 17.25 13.4265 17.25Z" stroke="white" stroke-linecap="round" stroke-linejoin="round"/>
<path d="M19.1957 17.25C19.4853 17.25 19.7202 17.0048 19.7202 16.7024C19.7202 16.3999 19.4853 16.1548 19.1957 16.1548C18.906 16.1548 18.6712 16.3999 18.6712 16.7024C18.6712 17.0048 18.906 17.25 19.1957 17.25Z" stroke="white" stroke-linecap="round" stroke-linejoin="round"/>
<path d="M9.23071 5.75H11.3286L12.7342 13.0826C12.7822 13.3347 12.9135 13.5612 13.1053 13.7224C13.2971 13.8836 13.537 13.9692 13.7832 13.9643H18.8811C19.1272 13.9692 19.3672 13.8836 19.5589 13.7224C19.7507 13.5612 19.8821 13.3347 19.93 13.0826L20.7692 8.4881H11.8531" stroke="white" stroke-linecap="round" stroke-linejoin="round"/>
</svg>
